<svg id="my-svg" width="100%" xmlns="http://www.w3.org/2000/svg" xmlns:xlink="http://www.w3.org/1999/xlink" class="statediagram" style="max-width: 834.574px; background-color: transparent;" viewBox="0 0 834.57421875 872" role="graphics-document document" aria-roledescription="stateDiagram"><style>#my-svg{font-family:"trebuchet ms",verdana,arial,sans-serif;font-size:16px;fill:#333;}@keyframes edge-animation-frame{from{stroke-dashoffset:0;}}@keyframes dash{to{stroke-dashoffset:0;}}#my-svg .edge-animation-slow{stroke-dasharray:9,5!important;stroke-dashoffset:900;animation:dash 50s linear infinite;stroke-linecap:round;}#my-svg .edge-animation-fast{stroke-dasharray:9,5!important;stroke-dashoffset:900;animation:dash 20s linear infinite;stroke-linecap:round;}#my-svg .error-icon{fill:#552222;}#my-svg .error-text{fill:#552222;stroke:#552222;}#my-svg .edge-thickness-normal{stroke-width:1px;}#my-svg .edge-thickness-thick{stroke-width:3.5px;}#my-svg .edge-pattern-solid{stroke-dasharray:0;}#my-svg .edge-thickness-invisible{stroke-width:0;fill:none;}#my-svg .edge-pattern-dashed{stroke-dasharray:3;}#my-svg .edge-pattern-dotted{stroke-dasharray:2;}#my-svg .marker{fill:#333333;stroke:#333333;}#my-svg .marker.cross{stroke:#333333;}#my-svg svg{font-family:"trebuchet ms",verdana,arial,sans-serif;font-size:16px;}#my-svg p{margin:0;}#my-svg defs [id$="-barbEnd"]{fill:#333333;stroke:#333333;}#my-svg g.stateGroup text{fill:#9370DB;stroke:none;font-size:10px;}#my-svg g.stateGroup text{fill:#333;stroke:none;font-size:10px;}#my-svg g.stateGroup .state-title{font-weight:bolder;fill:#131300;}#my-svg g.stateGroup rect{fill:#ECECFF;stroke:#9370DB;}#my-svg g.stateGroup line{stroke:#333333;stroke-width:1;}#my-svg .transition{stroke:#333333;stroke-width:1;fill:none;}#my-svg .stateGroup .composit{fill:white;border-bottom:1px;}#my-svg .stateGroup .alt-composit{fill:#e0e0e0;border-bottom:1px;}#my-svg .state-note{stroke:#aaaa33;fill:#fff5ad;}#my-svg .state-note text{fill:black;stroke:none;font-size:10px;}#my-svg .stateLabel .box{stroke:none;stroke-width:0;fill:#ECECFF;opacity:0.5;}#my-svg .edgeLabel .label rect{fill:#ECECFF;opacity:0.5;}#my-svg .edgeLabel{background-color:rgba(232,232,232, 0.8);text-align:center;}#my-svg .edgeLabel p{background-color:rgba(232,232,232, 0.8);}#my-svg .edgeLabel rect{opacity:0.5;background-color:rgba(232,232,232, 0.8);fill:rgba(232,232,232, 0.8);}#my-svg .edgeLabel .label text{fill:#333;}#my-svg .label div .edgeLabel{color:#333;}#my-svg .stateLabel text{fill:#131300;font-size:10px;font-weight:bold;}#my-svg .node circle.state-start{fill:#333333;stroke:#333333;}#my-svg .node .fork-join{fill:#333333;stroke:#333333;}#my-svg .node circle.state-end{fill:#9370DB;stroke:white;stroke-width:1.5;}#my-svg .end-state-inner{fill:white;stroke-width:1.5;}#my-svg .node rect{fill:#ECECFF;stroke:#9370DB;stroke-width:1px;}#my-svg .node polygon{fill:#ECECFF;stroke:#9370DB;stroke-width:1px;}#my-svg [id$="-barbEnd"]{fill:#333333;}#my-svg .statediagram-cluster rect{fill:#ECECFF;stroke:#9370DB;stroke-width:1px;}#my-svg .cluster-label,#my-svg .nodeLabel{color:#131300;}#my-svg .statediagram-cluster rect.outer{rx:5px;ry:5px;}#my-svg .statediagram-state .divider{stroke:#9370DB;}#my-svg .statediagram-state .title-state{rx:5px;ry:5px;}#my-svg .statediagram-cluster.statediagram-cluster .inner{fill:white;}#my-svg .statediagram-cluster.statediagram-cluster-alt .inner{fill:#f0f0f0;}#my-svg .statediagram-cluster .inner{rx:0;ry:0;}#my-svg .statediagram-state rect.basic{rx:5px;ry:5px;}#my-svg .statediagram-state rect.divider{stroke-dasharray:10,10;fill:#f0f0f0;}#my-svg .note-edge{stroke-dasharray:5;}#my-svg .statediagram-note rect{fill:#fff5ad;stroke:#aaaa33;stroke-width:1px;rx:0;ry:0;}#my-svg .statediagram-note rect{fill:#fff5ad;stroke:#aaaa33;stroke-width:1px;rx:0;ry:0;}#my-svg .statediagram-note text{fill:black;}#my-svg .statediagram-note .nodeLabel{color:black;}#my-svg .statediagram .edgeLabel{color:red;}#my-svg [id$="-dependencyStart"],#my-svg [id$="-dependencyEnd"]{fill:#333333;stroke:#333333;stroke-width:1;}#my-svg .statediagramTitleText{text-anchor:middle;font-size:18px;fill:#333;}#my-svg [data-look="neo"].statediagram-cluster rect{fill:#ECECFF;stroke:#9370DB;stroke-width:1;}#my-svg [data-look="neo"].statediagram-cluster rect.outer{rx:5px;ry:5px;filter:drop-shadow(1px 2px 2px rgba(185, 185, 185, 1));}#my-svg .node .neo-node{stroke:#9370DB;}#my-svg [data-look="neo"].node rect,#my-svg [data-look="neo"].cluster rect,#my-svg [data-look="neo"].node polygon{stroke:#9370DB;filter:drop-shadow(1px 2px 2px rgba(185, 185, 185, 1));}#my-svg [data-look="neo"].swimlane.cluster rect{filter:none;}#my-svg [data-look="neo"].node path{stroke:#9370DB;stroke-width:1px;}#my-svg [data-look="neo"].node .outer-path{filter:drop-shadow(1px 2px 2px rgba(185, 185, 185, 1));}#my-svg [data-look="neo"].node .neo-line path{stroke:#9370DB;filter:none;}#my-svg [data-look="neo"].node circle{stroke:#9370DB;filter:drop-shadow(1px 2px 2px rgba(185, 185, 185, 1));}#my-svg [data-look="neo"].node circle .state-start{fill:#000000;}#my-svg [data-look="neo"].icon-shape .icon{fill:#9370DB;filter:drop-shadow(1px 2px 2px rgba(185, 185, 185, 1));}#my-svg [data-look="neo"].icon-shape .icon-neo path{stroke:#9370DB;filter:drop-shadow(1px 2px 2px rgba(185, 185, 185, 1));}#my-svg :root{--mermaid-font-family:"trebuchet ms",verdana,arial,sans-serif;}</style><g><defs><marker id="my-svg_stateDiagram-barbEnd" refX="19" refY="7" markerWidth="20" markerHeight="14" markerUnits="userSpaceOnUse" orient="auto"><path d="M 19,7 L9,13 L14,7 L9,1 Z"/></marker></defs><g class="root"><g class="clusters"><g class="note-cluster" id="my-svg-state-on_inspect----parent-11"><rect x="526.57421875" y="234" width="300" height="200" fill="none"/></g></g><g class="edgePaths"><path d="M506.574,22L506.574,30.167C506.574,38.333,506.574,54.667,506.574,71C506.574,87.333,506.574,103.667,506.574,111.833L506.574,120" id="my-svg-edge0" class="edge-thickness-normal edge-pattern-solid transition" style="fill:none;;;fill:none" data-edge="true" data-et="edge" data-id="edge0" data-points="W3sieCI6NTA2LjU3NDIxODc1LCJ5IjoyMn0seyJ4Ijo1MDYuNTc0MjE4NzUsInkiOjcxfSx7IngiOjUwNi41NzQyMTg3NSwieSI6MTIwfV0=" data-look="classic" marker-end="url(#my-svg_stateDiagram-barbEnd)"/><path d="M459.871,152.645L432.566,160.037C405.262,167.43,350.652,182.215,323.348,195.774C296.043,209.333,296.043,221.667,296.043,241.167C296.043,260.667,296.043,287.333,296.043,300.667L296.043,314" id="my-svg-edge1" class="edge-thickness-normal edge-pattern-solid transition" style="fill:none;;;fill:none" data-edge="true" data-et="edge" data-id="edge1" data-points="W3sieCI6NDU5Ljg3MTA5Mzc1LCJ5IjoxNTIuNjQ0NTc0NzM2NTI5NjJ9LHsieCI6Mjk2LjA0Mjk2ODc1LCJ5IjoxOTd9LHsieCI6Mjk2LjA0Mjk2ODc1LCJ5IjoyMzR9LHsieCI6Mjk2LjA0Mjk2ODc1LCJ5IjozMTR9XQ==" data-look="classic" marker-end="url(#my-svg_stateDiagram-barbEnd)"/><path d="M284.785,354L277.28,367.333C269.775,380.667,254.764,407.333,247.259,426.833C239.754,446.333,239.754,458.667,239.754,471C239.754,483.333,239.754,495.667,239.754,501.833L239.754,508" id="my-svg-edge2" class="edge-thickness-normal edge-pattern-solid transition" style="fill:none;;;fill:none" data-edge="true" data-et="edge" data-id="edge2" data-points="W3sieCI6Mjg0Ljc4NTE1NjI1LCJ5IjozNTR9LHsieCI6MjM5Ljc1MzkwNjI1LCJ5Ijo0MzR9LHsieCI6MjM5Ljc1MzkwNjI1LCJ5Ijo0NzF9LHsieCI6MjM5Ljc1MzkwNjI1LCJ5Ijo1MDh9XQ==" data-look="classic" marker-end="url(#my-svg_stateDiagram-barbEnd)"/><path d="M221.249,548L215.544,554.167C209.838,560.333,198.427,572.667,192.721,585C187.016,597.333,187.016,609.667,187.016,615.833L187.016,622" id="my-svg-edge3" class="edge-thickness-normal edge-pattern-solid transition" style="fill:none;;;fill:none" data-edge="true" data-et="edge" data-id="edge3" data-points="W3sieCI6MjIxLjI0OTI0NjE2MjI4MDcsInkiOjU0OH0seyJ4IjoxODcuMDE1NjI1LCJ5Ijo1ODV9LHsieCI6MTg3LjAxNTYyNSwieSI6NjIyfV0=" data-look="classic" marker-end="url(#my-svg_stateDiagram-barbEnd)"/><path d="M164.113,662L154.76,670.167C145.408,678.333,126.704,694.667,117.352,711C108,727.333,108,743.667,108,751.833L108,760" id="my-svg-edge4" class="edge-thickness-normal edge-pattern-solid transition" style="fill:none;;;fill:none" data-edge="true" data-et="edge" data-id="edge4" data-points="W3sieCI6MTY0LjExMjU0NTI4OTg1NTA2LCJ5Ijo2NjJ9LHsieCI6MTA4LCJ5Ijo3MTF9LHsieCI6MTA4LCJ5Ijo3NjB9XQ==" data-look="classic" marker-end="url(#my-svg_stateDiagram-barbEnd)"/><path d="M506.574,160L506.574,166.167C506.574,172.333,506.574,184.667,506.574,197C506.574,209.333,506.574,221.667,506.574,244.5C506.574,267.333,506.574,300.667,506.574,334C506.574,367.333,506.574,400.667,506.574,423.5C506.574,446.333,506.574,458.667,506.574,474.333C506.574,490,506.574,509,506.574,528C506.574,547,506.574,566,506.574,585C506.574,604,506.574,623,506.574,644C506.574,665,506.574,688,494.443,707.667C482.311,727.333,458.048,743.667,445.916,751.833L433.784,760" id="my-svg-edge5" class="edge-thickness-normal edge-pattern-solid transition" style="fill:none;;;fill:none" data-edge="true" data-et="edge" data-id="edge5" data-points="W3sieCI6NTA2LjU3NDIxODc1LCJ5IjoxNjB9LHsieCI6NTA2LjU3NDIxODc1LCJ5IjoxOTd9LHsieCI6NTA2LjU3NDIxODc1LCJ5IjoyMzR9LHsieCI6NTA2LjU3NDIxODc1LCJ5IjozMzR9LHsieCI6NTA2LjU3NDIxODc1LCJ5Ijo0MzR9LHsieCI6NTA2LjU3NDIxODc1LCJ5Ijo0NzF9LHsieCI6NTA2LjU3NDIxODc1LCJ5Ijo1Mjh9LHsieCI6NTA2LjU3NDIxODc1LCJ5Ijo1ODV9LHsieCI6NTA2LjU3NDIxODc1LCJ5Ijo2NDJ9LHsieCI6NTA2LjU3NDIxODc1LCJ5Ijo3MTF9LHsieCI6NDMzLjc4NDM2MzY3NzUzNjI1LCJ5Ijo3NjB9XQ==" data-look="classic" marker-end="url(#my-svg_stateDiagram-barbEnd)"/><path d="M323.452,354L341.725,367.333C359.998,380.667,396.544,407.333,414.817,426.833C433.09,446.333,433.09,458.667,433.09,474.333C433.09,490,433.09,509,433.09,528C433.09,547,433.09,566,433.09,585C433.09,604,433.09,623,433.09,644C433.09,665,433.09,688,429.656,707.667C426.221,727.333,419.353,743.667,415.919,751.833L412.485,760" id="my-svg-edge6" class="edge-thickness-normal edge-pattern-solid transition" style="fill:none;;;fill:none" data-edge="true" data-et="edge" data-id="edge6" data-points="W3sieCI6MzIzLjQ1MjM0Mzc1LCJ5IjozNTR9LHsieCI6NDMzLjA4OTg0Mzc1LCJ5Ijo0MzR9LHsieCI6NDMzLjA4OTg0Mzc1LCJ5Ijo0NzF9LHsieCI6NDMzLjA4OTg0Mzc1LCJ5Ijo1Mjh9LHsieCI6NDMzLjA4OTg0Mzc1LCJ5Ijo1ODV9LHsieCI6NDMzLjA4OTg0Mzc1LCJ5Ijo2NDJ9LHsieCI6NDMzLjA4OTg0Mzc1LCJ5Ijo3MTF9LHsieCI6NDEyLjQ4NDU0NDgzNjk1NjUsInkiOjc2MH1d" data-look="classic" marker-end="url(#my-svg_stateDiagram-barbEnd)"/><path d="M277.66,548L289.347,554.167C301.035,560.333,324.41,572.667,336.098,588.333C347.785,604,347.785,623,347.785,644C347.785,665,347.785,688,354.447,707.667C361.11,727.333,374.434,743.667,381.096,751.833L387.759,760" id="my-svg-edge7" class="edge-thickness-normal edge-pattern-solid transition" style="fill:none;;;fill:none" data-edge="true" data-et="edge" data-id="edge7" data-points="W3sieCI6Mjc3LjY1OTYwODAwNDM4NiwieSI6NTQ4fSx7IngiOjM0Ny43ODUxNTYyNSwieSI6NTg1fSx7IngiOjM0Ny43ODUxNTYyNSwieSI6NjQyfSx7IngiOjM0Ny43ODUxNTYyNSwieSI6NzExfSx7IngiOjM4Ny43NTg1NDg0NjAxNDQ5NCwieSI6NzYwfV0=" data-look="classic" marker-end="url(#my-svg_stateDiagram-barbEnd)"/><path d="M209.919,662L219.271,670.167C228.623,678.333,247.327,694.667,273.232,711.107C299.137,727.548,332.242,744.095,348.795,752.369L365.348,760.643" id="my-svg-edge8" class="edge-thickness-normal edge-pattern-solid transition" style="fill:none;;;fill:none" data-edge="true" data-et="edge" data-id="edge8" data-points="W3sieCI6MjA5LjkxODcwNDcxMDE0NDk0LCJ5Ijo2NjJ9LHsieCI6MjY2LjAzMTI1LCJ5Ijo3MTF9LHsieCI6MzY1LjM0NzY1NjI1LCJ5Ijo3NjAuNjQyNzQ1OTc0NzAyMn1d" data-look="classic" marker-end="url(#my-svg_stateDiagram-barbEnd)"/><path d="M108,800L108,804.167C108,808.333,108,816.667,138.189,825.971C168.379,835.275,228.757,845.55,258.946,850.687L289.136,855.825" id="my-svg-edge9" class="edge-thickness-normal edge-pattern-solid transition" style="fill:none;;;fill:none" data-edge="true" data-et="edge" data-id="edge9" data-points="W3sieCI6MTA4LCJ5Ijo4MDB9LHsieCI6MTA4LCJ5Ijo4MjV9LHsieCI6Mjg5LjEzNTYyMzczMzQyMzc2LCJ5Ijo4NTUuODI0NTUwMzU2NzYyOX1d" data-look="classic" marker-end="url(#my-svg_stateDiagram-barbEnd)"/><path d="M404.074,800L404.074,804.167C404.074,808.333,404.074,816.667,387.189,825.835C370.303,835.003,336.532,845.007,319.647,850.008L302.761,855.01" id="my-svg-edge10" class="edge-thickness-normal edge-pattern-solid transition" style="fill:none;;;fill:none" data-edge="true" data-et="edge" data-id="edge10" data-points="W3sieCI6NDA0LjA3NDIxODc1LCJ5Ijo4MDB9LHsieCI6NDA0LjA3NDIxODc1LCJ5Ijo4MjV9LHsieCI6MzAyLjc2MTA4NTEzNjczNTc0LCJ5Ijo4NTUuMDEwMDIyODAwMTEwNn1d" data-look="classic" marker-end="url(#my-svg_stateDiagram-barbEnd)"/><path d="M553.277,155.659L573.827,162.549C594.376,169.44,635.475,183.22,656.025,196.277C676.574,209.333,676.574,221.667,676.574,232C676.574,242.333,676.574,250.667,676.574,254.833L676.574,259" id="my-svg-on_inspect-on_inspect----note-11" class="edge-thickness-normal edge-pattern-solid transition note-edge" style="fill:none;;;fill:none" data-edge="true" data-et="edge" data-id="on_inspect-on_inspect----note-11" data-points="W3sieCI6NTUzLjI3NzM0Mzc1LCJ5IjoxNTUuNjU5MjgzMDg4MjM1M30seyJ4Ijo2NzYuNTc0MjE4NzUsInkiOjE5N30seyJ4Ijo2NzYuNTc0MjE4NzUsInkiOjIzNH0seyJ4Ijo2NzYuNTc0MjE4NzUsInkiOjI1OX1d" data-look="classic"/></g><g class="edgeLabels"><g class="edgeLabel" transform="translate(506.57421875, 71)"><g class="label" data-id="edge0" transform="translate(-88.1953125, -24)"><foreignObject width="176.390625" height="48"><div xmlns="http://www.w3.org/1999/xhtml" class="labelBkg" style="display: table-cell; white-space: nowrap; line-height: 1.5; max-width: 200px; text-align: center;"><span class="edgeLabel"><p>Партнёр создаёт заявку<br />POST /applications</p></span></div></foreignObject></g></g><g class="edgeLabel" transform="translate(296.04296875, 197)"><g class="label" data-id="edge1" transform="translate(-38.03125, -12)"><foreignObject width="76.0625" height="24"><div xmlns="http://www.w3.org/1999/xhtml" class="labelBkg" style="display: table-cell; white-space: nowrap; line-height: 1.5; max-width: 200px; text-align: center;"><span class="edgeLabel"><p>менеджер</p></span></div></foreignObject></g></g><g class="edgeLabel" transform="translate(239.75390625, 471)"><g class="label" data-id="edge2" transform="translate(-38.03125, -12)"><foreignObject width="76.0625" height="24"><div xmlns="http://www.w3.org/1999/xhtml" class="labelBkg" style="display: table-cell; white-space: nowrap; line-height: 1.5; max-width: 200px; text-align: center;"><span class="edgeLabel"><p>менеджер</p></span></div></foreignObject></g></g><g class="edgeLabel" transform="translate(187.015625, 585)"><g class="label" data-id="edge3" transform="translate(-38.03125, -12)"><foreignObject width="76.0625" height="24"><div xmlns="http://www.w3.org/1999/xhtml" class="labelBkg" style="display: table-cell; white-space: nowrap; line-height: 1.5; max-width: 200px; text-align: center;"><span class="edgeLabel"><p>менеджер</p></span></div></foreignObject></g></g><g class="edgeLabel" transform="translate(108, 711)"><g class="label" data-id="edge4" transform="translate(-100, -24)"><foreignObject width="200" height="48"><div xmlns="http://www.w3.org/1999/xhtml" class="labelBkg" style="display: table; white-space: break-spaces; line-height: 1.5; max-width: 200px; text-align: center; width: 200px;"><span class="edgeLabel"><p>менеджер (SWIFT reference)</p></span></div></foreignObject></g></g><g class="edgeLabel" transform="translate(506.57421875, 528)"><g class="label" data-id="edge5" transform="translate(-38.03125, -12)"><foreignObject width="76.0625" height="24"><div xmlns="http://www.w3.org/1999/xhtml" class="labelBkg" style="display: table-cell; white-space: nowrap; line-height: 1.5; max-width: 200px; text-align: center;"><span class="edgeLabel"><p>менеджер</p></span></div></foreignObject></g></g><g class="edgeLabel" transform="translate(433.08984375, 585)"><g class="label" data-id="edge6" transform="translate(-38.03125, -12)"><foreignObject width="76.0625" height="24"><div xmlns="http://www.w3.org/1999/xhtml" class="labelBkg" style="display: table-cell; white-space: nowrap; line-height: 1.5; max-width: 200px; text-align: center;"><span class="edgeLabel"><p>менеджер</p></span></div></foreignObject></g></g><g class="edgeLabel" transform="translate(347.78515625, 642)"><g class="label" data-id="edge7" transform="translate(-38.03125, -12)"><foreignObject width="76.0625" height="24"><div xmlns="http://www.w3.org/1999/xhtml" class="labelBkg" style="display: table-cell; white-space: nowrap; line-height: 1.5; max-width: 200px; text-align: center;"><span class="edgeLabel"><p>менеджер</p></span></div></foreignObject></g></g><g class="edgeLabel" transform="translate(266.03125, 711)"><g class="label" data-id="edge8" transform="translate(-38.03125, -12)"><foreignObject width="76.0625" height="24"><div xmlns="http://www.w3.org/1999/xhtml" class="labelBkg" style="display: table-cell; white-space: nowrap; line-height: 1.5; max-width: 200px; text-align: center;"><span class="edgeLabel"><p>менеджер</p></span></div></foreignObject></g></g><g class="edgeLabel"><g class="label" data-id="edge9" transform="translate(0, 0)"><foreignObject width="0" height="0"><div xmlns="http://www.w3.org/1999/xhtml" class="labelBkg" style="display: table-cell; white-space: nowrap; line-height: 1.5; max-width: 200px; text-align: center;"><span class="edgeLabel"></span></div></foreignObject></g></g><g class="edgeLabel"><g class="label" data-id="edge10" transform="translate(0, 0)"><foreignObject width="0" height="0"><div xmlns="http://www.w3.org/1999/xhtml" class="labelBkg" style="display: table-cell; white-space: nowrap; line-height: 1.5; max-width: 200px; text-align: center;"><span class="edgeLabel"></span></div></foreignObject></g></g><g class="edgeLabel"><g class="label" data-id="on_inspect-on_inspect----note-11" transform="translate(0, 0)"><foreignObject width="0" height="0"><div xmlns="http://www.w3.org/1999/xhtml" class="labelBkg" style="display: table-cell; white-space: nowrap; line-height: 1.5; max-width: 200px; text-align: center;"><span class="edgeLabel"></span></div></foreignObject></g></g></g><g class="nodes"><g class="node default" id="my-svg-state-root_start-0" data-look="classic" transform="translate(506.57421875, 15)"><circle class="state-start" r="7" width="14" height="14"/></g><g class="node  statediagram-state" id="my-svg-state-on_inspect-11" data-look="classic" transform="translate(506.57421875, 140)"><rect class="basic label-container" style="" rx="5" ry="5" x="-46.703125" y="-20" width="93.40625" height="40"/><g class="label" style="" transform="translate(-38.703125, -12)"><rect/><foreignObject width="77.40625" height="24"><div xmlns="http://www.w3.org/1999/xhtml" style="display: table-cell; white-space: nowrap; line-height: 1.5; max-width: 200px; text-align: center;"><span class="nodeLabel markdown-node-label"><p>on_inspect</p></span></div></foreignObject></g></g><g class="node  statediagram-state" id="my-svg-state-confirmation-6" data-look="classic" transform="translate(296.04296875, 334)"><rect class="basic label-container" style="" rx="5" ry="5" x="-53.9375" y="-20" width="107.875" height="40"/><g class="label" style="" transform="translate(-45.9375, -12)"><rect/><foreignObject width="91.875" height="24"><div xmlns="http://www.w3.org/1999/xhtml" style="display: table-cell; white-space: nowrap; line-height: 1.5; max-width: 200px; text-align: center;"><span class="nodeLabel markdown-node-label"><p>confirmation</p></span></div></foreignObject></g></g><g class="node  statediagram-state" id="my-svg-state-queued_for_payout-7" data-look="classic" transform="translate(239.75390625, 528)"><rect class="basic label-container" style="" rx="5" ry="5" x="-77.578125" y="-20" width="155.15625" height="40"/><g class="label" style="" transform="translate(-69.578125, -12)"><rect/><foreignObject width="139.15625" height="24"><div xmlns="http://www.w3.org/1999/xhtml" style="display: table-cell; white-space: nowrap; line-height: 1.5; max-width: 200px; text-align: center;"><span class="nodeLabel markdown-node-label"><p>queued_for_payout</p></span></div></foreignObject></g></g><g class="node  statediagram-state" id="my-svg-state-payout-8" data-look="classic" transform="translate(187.015625, 642)"><rect class="basic label-container" style="" rx="5" ry="5" x="-32.4453125" y="-20" width="64.890625" height="40"/><g class="label" style="" transform="translate(-24.4453125, -12)"><rect/><foreignObject width="48.890625" height="24"><div xmlns="http://www.w3.org/1999/xhtml" style="display: table-cell; white-space: nowrap; line-height: 1.5; max-width: 200px; text-align: center;"><span class="nodeLabel markdown-node-label"><p>payout</p></span></div></foreignObject></g></g><g class="node  statediagram-state" id="my-svg-state-done-9" data-look="classic" transform="translate(108, 780)"><rect class="basic label-container" style="" rx="5" ry="5" x="-25.484375" y="-20" width="50.96875" height="40"/><g class="label" style="" transform="translate(-17.484375, -12)"><rect/><foreignObject width="34.96875" height="24"><div xmlns="http://www.w3.org/1999/xhtml" style="display: table-cell; white-space: nowrap; line-height: 1.5; max-width: 200px; text-align: center;"><span class="nodeLabel markdown-node-label"><p>done</p></span></div></foreignObject></g></g><g class="node  statediagram-state" id="my-svg-state-rejected-10" data-look="classic" transform="translate(404.07421875, 780)"><rect class="basic label-container" style="" rx="5" ry="5" x="-38.7265625" y="-20" width="77.453125" height="40"/><g class="label" style="" transform="translate(-30.7265625, -12)"><rect/><foreignObject width="61.453125" height="24"><div xmlns="http://www.w3.org/1999/xhtml" style="display: table-cell; white-space: nowrap; line-height: 1.5; max-width: 200px; text-align: center;"><span class="nodeLabel markdown-node-label"><p>rejected</p></span></div></foreignObject></g></g><g class="node default" id="my-svg-state-root_end-10" data-look="classic" transform="translate(296.04296875, 857)"><g class="outer-path"><path d="M7 0 C7 0.40517908122283747, 6.964012880168563 0.816513743121899, 6.893654271085456 1.2155372436685123 C6.823295662002349 1.6145607442151257, 6.716427752933756 2.013397210557766, 6.5778483455013586 2.394141003279681 C6.439268938068961 2.7748847960015954, 6.26476736710249 3.149104622578984, 6.062177826491071 3.4999999999999996 C5.859588285879653 3.8508953774210153, 5.622755194947063 4.189128084166967, 5.362311101832846 4.499513267805774 C5.10186700871863 4.809898451444582, 4.809898451444583 5.10186700871863, 4.499513267805775 5.362311101832846 C4.189128084166968 5.622755194947063, 3.8508953774210166 5.859588285879652, 3.500000000000001 6.06217782649107 C3.149104622578985 6.264767367102489, 2.7748847960015963 6.439268938068961, 2.3941410032796817 6.5778483455013586 C2.013397210557767 6.716427752933756, 1.6145607442151264 6.823295662002349, 1.2155372436685128 6.893654271085456 C0.8165137431218992 6.964012880168563, 0.4051790812228379 7, 4.286263797015736e-16 7 C-0.405179081222837 7, -0.8165137431218985 6.964012880168563, -1.2155372436685121 6.893654271085456 C-1.6145607442151257 6.823295662002349, -2.0133972105577667 6.716427752933756, -2.394141003279681 6.5778483455013586 C-2.774884796001595 6.439268938068961, -3.149104622578983 6.26476736710249, -3.4999999999999982 6.062177826491071 C-3.8508953774210135 5.859588285879653, -4.189128084166966 5.6227551949470636, -4.499513267805773 5.362311101832848 C-4.809898451444581 5.101867008718632, -5.101867008718628 4.809898451444586, -5.3623111018328435 4.499513267805779 C-5.622755194947059 4.189128084166971, -5.859588285879649 3.8508953774210206, -6.062177826491068 3.5000000000000053 C-6.264767367102486 3.14910462257899, -6.439268938068958 2.774884796001602, -6.577848345501356 2.394141003279688 C-6.716427752933754 2.0133972105577738, -6.823295662002347 1.614560744215134, -6.893654271085454 1.215537243668521 C-6.9640128801685615 0.816513743121908, -6.999999999999999 0.4051790812228472, -7 1.0183126166254463e-14 C-7.000000000000001 -0.40517908122282686, -6.964012880168565 -0.8165137431218878, -6.893654271085459 -1.215537243668501 C-6.823295662002352 -1.6145607442151142, -6.716427752933759 -2.0133972105577542, -6.577848345501363 -2.394141003279669 C-6.439268938068967 -2.7748847960015834, -6.264767367102496 -3.149104622578972, -6.062177826491078 -3.4999999999999876 C-5.859588285879661 -3.8508953774210033, -5.6227551949470715 -4.1891280841669545, -5.362311101832856 -4.499513267805763 C-5.10186700871864 -4.809898451444571, -4.809898451444594 -5.10186700871862, -4.499513267805787 -5.362311101832836 C-4.189128084166979 -5.622755194947053, -3.850895377421028 -5.859588285879643, -3.5000000000000133 -6.062177826491062 C-3.1491046225789985 -6.264767367102482, -2.774884796001611 -6.439268938068954, -2.3941410032796973 -6.577848345501353 C-2.0133972105577835 -6.716427752933752, -1.6145607442151435 -6.823295662002345, -1.2155372436685306 -6.893654271085453 C-0.8165137431219176 -6.9640128801685615, -0.40517908122285695 -6.999999999999999, -1.9937625952807352e-14 -7 C0.4051790812228171 -7.000000000000001, 0.8165137431218781 -6.964012880168565, 1.2155372436684913 -6.89365427108546 C1.6145607442151044 -6.823295662002354, 2.013397210557745 -6.716427752933763, 2.3941410032796595 -6.5778483455013665 C2.774884796001574 -6.43926893806897, 3.149104622578963 -6.2647673671025, 3.499999999999979 -6.062177826491083 C3.8508953774209953 -5.859588285879665, 4.189128084166947 -5.622755194947077, 4.499513267805756 -5.362311101832862 C4.809898451444564 -5.1018670087186475, 5.101867008718613 -4.809898451444602, 5.362311101832829 -4.499513267805796 C5.622755194947046 -4.189128084166989, 5.859588285879637 -3.8508953774210393, 6.062177826491056 -3.500000000000025 C6.2647673671024755 -3.1491046225790105, 6.439268938068949 -2.774884796001623, 6.577848345501348 -2.3941410032797092 C6.716427752933747 -2.0133972105577955, 6.823295662002342 -1.6145607442151562, 6.893654271085451 -1.2155372436685434 C6.96401288016856 -0.8165137431219307, 6.982275711847575 -0.2025895406114567, 7 -3.2800750208310675e-14 C7.017724288152425 0.2025895406113911, 7.017724288152424 -0.2025895406114242, 7 0" stroke="none" stroke-width="0" fill="#ECECFF" style=""/><path d="M7 0 C7 0.40517908122283747, 6.964012880168563 0.816513743121899, 6.893654271085456 1.2155372436685123 C6.823295662002349 1.6145607442151257, 6.716427752933756 2.013397210557766, 6.5778483455013586 2.394141003279681 C6.439268938068961 2.7748847960015954, 6.26476736710249 3.149104622578984, 6.062177826491071 3.4999999999999996 C5.859588285879653 3.8508953774210153, 5.622755194947063 4.189128084166967, 5.362311101832846 4.499513267805774 C5.10186700871863 4.809898451444582, 4.809898451444583 5.10186700871863, 4.499513267805775 5.362311101832846 C4.189128084166968 5.622755194947063, 3.8508953774210166 5.859588285879652, 3.500000000000001 6.06217782649107 C3.149104622578985 6.264767367102489, 2.7748847960015963 6.439268938068961, 2.3941410032796817 6.5778483455013586 C2.013397210557767 6.716427752933756, 1.6145607442151264 6.823295662002349, 1.2155372436685128 6.893654271085456 C0.8165137431218992 6.964012880168563, 0.4051790812228379 7, 4.286263797015736e-16 7 C-0.405179081222837 7, -0.8165137431218985 6.964012880168563, -1.2155372436685121 6.893654271085456 C-1.6145607442151257 6.823295662002349, -2.0133972105577667 6.716427752933756, -2.394141003279681 6.5778483455013586 C-2.774884796001595 6.439268938068961, -3.149104622578983 6.26476736710249, -3.4999999999999982 6.062177826491071 C-3.8508953774210135 5.859588285879653, -4.189128084166966 5.6227551949470636, -4.499513267805773 5.362311101832848 C-4.809898451444581 5.101867008718632, -5.101867008718628 4.809898451444586, -5.3623111018328435 4.499513267805779 C-5.622755194947059 4.189128084166971, -5.859588285879649 3.8508953774210206, -6.062177826491068 3.5000000000000053 C-6.264767367102486 3.14910462257899, -6.439268938068958 2.774884796001602, -6.577848345501356 2.394141003279688 C-6.716427752933754 2.0133972105577738, -6.823295662002347 1.614560744215134, -6.893654271085454 1.215537243668521 C-6.9640128801685615 0.816513743121908, -6.999999999999999 0.4051790812228472, -7 1.0183126166254463e-14 C-7.000000000000001 -0.40517908122282686, -6.964012880168565 -0.8165137431218878, -6.893654271085459 -1.215537243668501 C-6.823295662002352 -1.6145607442151142, -6.716427752933759 -2.0133972105577542, -6.577848345501363 -2.394141003279669 C-6.439268938068967 -2.7748847960015834, -6.264767367102496 -3.149104622578972, -6.062177826491078 -3.4999999999999876 C-5.859588285879661 -3.8508953774210033, -5.6227551949470715 -4.1891280841669545, -5.362311101832856 -4.499513267805763 C-5.10186700871864 -4.809898451444571, -4.809898451444594 -5.10186700871862, -4.499513267805787 -5.362311101832836 C-4.189128084166979 -5.622755194947053, -3.850895377421028 -5.859588285879643, -3.5000000000000133 -6.062177826491062 C-3.1491046225789985 -6.264767367102482, -2.774884796001611 -6.439268938068954, -2.3941410032796973 -6.577848345501353 C-2.0133972105577835 -6.716427752933752, -1.6145607442151435 -6.823295662002345, -1.2155372436685306 -6.893654271085453 C-0.8165137431219176 -6.9640128801685615, -0.40517908122285695 -6.999999999999999, -1.9937625952807352e-14 -7 C0.4051790812228171 -7.000000000000001, 0.8165137431218781 -6.964012880168565, 1.2155372436684913 -6.89365427108546 C1.6145607442151044 -6.823295662002354, 2.013397210557745 -6.716427752933763, 2.3941410032796595 -6.5778483455013665 C2.774884796001574 -6.43926893806897, 3.149104622578963 -6.2647673671025, 3.499999999999979 -6.062177826491083 C3.8508953774209953 -5.859588285879665, 4.189128084166947 -5.622755194947077, 4.499513267805756 -5.362311101832862 C4.809898451444564 -5.1018670087186475, 5.101867008718613 -4.809898451444602, 5.362311101832829 -4.499513267805796 C5.622755194947046 -4.189128084166989, 5.859588285879637 -3.8508953774210393, 6.062177826491056 -3.500000000000025 C6.2647673671024755 -3.1491046225790105, 6.439268938068949 -2.774884796001623, 6.577848345501348 -2.3941410032797092 C6.716427752933747 -2.0133972105577955, 6.823295662002342 -1.6145607442151562, 6.893654271085451 -1.2155372436685434 C6.96401288016856 -0.8165137431219307, 6.982275711847575 -0.2025895406114567, 7 -3.2800750208310675e-14 C7.017724288152425 0.2025895406113911, 7.017724288152424 -0.2025895406114242, 7 0" stroke="#333333" stroke-width="2" fill="none" stroke-dasharray="0 0" style=""/><g><path d="M2.5 0 C2.5 0.14470681472244193, 2.487147457203058 0.29161205111496386, 2.46201938253052 0.4341204441673258 C2.436891307857982 0.5766288372196877, 2.3987241974763416 0.7190704323420595, 2.3492315519647713 0.8550503583141718 C2.299738906453201 0.991030284286284, 2.2374169168223177 1.124680222349637, 2.165063509461097 1.2499999999999998 C2.092710102099876 1.3753197776503625, 2.0081268553382365 1.496117172916774, 1.915111107797445 1.6069690242163481 C1.8220953602566536 1.7178208755159223, 1.7178208755159226 1.8220953602566536, 1.6069690242163484 1.915111107797445 C1.4961171729167742 2.0081268553382365, 1.375319777650363 2.0927101020998755, 1.2500000000000002 2.1650635094610964 C1.1246802223496375 2.2374169168223172, 0.9910302842862845 2.2997389064532, 0.8550503583141721 2.349231551964771 C0.7190704323420597 2.3987241974763416, 0.576628837219688 2.436891307857982, 0.43412044416732604 2.46201938253052 C0.291612051114964 2.487147457203058, 0.14470681472244212 2.5, 1.5308084989341916e-16 2.5 C-0.1447068147224418 2.5, -0.2916120511149638 2.487147457203058, -0.43412044416732576 2.46201938253052 C-0.5766288372196877 2.436891307857982, -0.7190704323420595 2.3987241974763416, -0.8550503583141718 2.3492315519647713 C-0.991030284286284 2.299738906453201, -1.124680222349637 2.2374169168223177, -1.2499999999999996 2.165063509461097 C-1.375319777650362 2.092710102099876, -1.4961171729167733 2.008126855338237, -1.6069690242163475 1.9151111077974459 C-1.7178208755159217 1.8220953602566548, -1.822095360256653 1.7178208755159234, -1.9151111077974443 1.6069690242163495 C-2.0081268553382357 1.4961171729167755, -2.0927101020998746 1.3753197776503645, -2.1650635094610955 1.250000000000002 C-2.2374169168223164 1.1246802223496395, -2.2997389064531992 0.9910302842862865, -2.34923155196477 0.8550503583141743 C-2.3987241974763407 0.7190704323420621, -2.436891307857981 0.5766288372196907, -2.4620193825305194 0.434120444167329 C-2.487147457203058 0.29161205111496724, -2.5 0.14470681472244545, -2.5 3.636830773662308e-15 C-2.5 -0.14470681472243818, -2.4871474572030587 -0.2916120511149599, -2.4620193825305208 -0.4341204441673218 C-2.436891307857983 -0.5766288372196837, -2.398724197476343 -0.7190704323420553, -2.3492315519647726 -0.8550503583141675 C-2.2997389064532023 -0.9910302842862798, -2.23741691682232 -1.1246802223496328, -2.165063509461099 -1.2499999999999956 C-2.092710102099878 -1.3753197776503583, -2.00812685533824 -1.4961171729167695, -1.9151111077974488 -1.606969024216344 C-1.8220953602566576 -1.7178208755159183, -1.7178208755159263 -1.82209536025665, -1.6069690242163523 -1.9151111077974416 C-1.4961171729167784 -2.0081268553382334, -1.3753197776503672 -2.0927101020998724, -1.2500000000000047 -2.1650635094610937 C-1.1246802223496422 -2.237416916822315, -0.9910302842862897 -2.299738906453198, -0.8550503583141776 -2.3492315519647686 C-0.7190704323420656 -2.3987241974763394, -0.5766288372196942 -2.4368913078579806, -0.43412044416733236 -2.462019382530519 C-0.29161205111497057 -2.4871474572030574, -0.1447068147224489 -2.4999999999999996, -7.120580697431198e-15 -2.5 C0.14470681472243463 -2.5000000000000004, 0.29161205111495647 -2.487147457203059, 0.4341204441673183 -2.4620193825305217 C0.5766288372196802 -2.436891307857984, 0.7190704323420518 -2.3987241974763442, 0.8550503583141642 -2.349231551964774 C0.9910302842862766 -2.2997389064532037, 1.1246802223496295 -2.2374169168223212, 1.2499999999999925 -2.165063509461101 C1.3753197776503554 -2.0927101020998804, 1.4961171729167668 -2.008126855338242, 1.6069690242163412 -1.915111107797451 C1.7178208755159157 -1.82209536025666, 1.8220953602566472 -1.7178208755159294, 1.915111107797439 -1.6069690242163557 C2.0081268553382308 -1.496117172916782, 2.09271010209987 -1.3753197776503712, 2.1650635094610915 -1.2500000000000089 C2.237416916822313 -1.1246802223496466, 2.299738906453196 -0.9910302842862939, 2.3492315519647673 -0.855050358314182 C2.3987241974763385 -0.71907043234207, 2.4368913078579792 -0.5766288372196986, 2.462019382530518 -0.4341204441673369 C2.487147457203057 -0.29161205111497523, 2.4936698970884197 -0.07235340736123454, 2.5 -1.1714553645825241e-14 C2.5063301029115803 0.07235340736121111, 2.50633010291158 -0.07235340736122292, 2.5 0" stroke="none" stroke-width="0" fill="#9370DB" style=""/><path d="M2.5 0 C2.5 0.14470681472244193, 2.487147457203058 0.29161205111496386, 2.46201938253052 0.4341204441673258 C2.436891307857982 0.5766288372196877, 2.3987241974763416 0.7190704323420595, 2.3492315519647713 0.8550503583141718 C2.299738906453201 0.991030284286284, 2.2374169168223177 1.124680222349637, 2.165063509461097 1.2499999999999998 C2.092710102099876 1.3753197776503625, 2.0081268553382365 1.496117172916774, 1.915111107797445 1.6069690242163481 C1.8220953602566536 1.7178208755159223, 1.7178208755159226 1.8220953602566536, 1.6069690242163484 1.915111107797445 C1.4961171729167742 2.0081268553382365, 1.375319777650363 2.0927101020998755, 1.2500000000000002 2.1650635094610964 C1.1246802223496375 2.2374169168223172, 0.9910302842862845 2.2997389064532, 0.8550503583141721 2.349231551964771 C0.7190704323420597 2.3987241974763416, 0.576628837219688 2.436891307857982, 0.43412044416732604 2.46201938253052 C0.291612051114964 2.487147457203058, 0.14470681472244212 2.5, 1.5308084989341916e-16 2.5 C-0.1447068147224418 2.5, -0.2916120511149638 2.487147457203058, -0.43412044416732576 2.46201938253052 C-0.5766288372196877 2.436891307857982, -0.7190704323420595 2.3987241974763416, -0.8550503583141718 2.3492315519647713 C-0.991030284286284 2.299738906453201, -1.124680222349637 2.2374169168223177, -1.2499999999999996 2.165063509461097 C-1.375319777650362 2.092710102099876, -1.4961171729167733 2.008126855338237, -1.6069690242163475 1.9151111077974459 C-1.7178208755159217 1.8220953602566548, -1.822095360256653 1.7178208755159234, -1.9151111077974443 1.6069690242163495 C-2.0081268553382357 1.4961171729167755, -2.0927101020998746 1.3753197776503645, -2.1650635094610955 1.250000000000002 C-2.2374169168223164 1.1246802223496395, -2.2997389064531992 0.9910302842862865, -2.34923155196477 0.8550503583141743 C-2.3987241974763407 0.7190704323420621, -2.436891307857981 0.5766288372196907, -2.4620193825305194 0.434120444167329 C-2.487147457203058 0.29161205111496724, -2.5 0.14470681472244545, -2.5 3.636830773662308e-15 C-2.5 -0.14470681472243818, -2.4871474572030587 -0.2916120511149599, -2.4620193825305208 -0.4341204441673218 C-2.436891307857983 -0.5766288372196837, -2.398724197476343 -0.7190704323420553, -2.3492315519647726 -0.8550503583141675 C-2.2997389064532023 -0.9910302842862798, -2.23741691682232 -1.1246802223496328, -2.165063509461099 -1.2499999999999956 C-2.092710102099878 -1.3753197776503583, -2.00812685533824 -1.4961171729167695, -1.9151111077974488 -1.606969024216344 C-1.8220953602566576 -1.7178208755159183, -1.7178208755159263 -1.82209536025665, -1.6069690242163523 -1.9151111077974416 C-1.4961171729167784 -2.0081268553382334, -1.3753197776503672 -2.0927101020998724, -1.2500000000000047 -2.1650635094610937 C-1.1246802223496422 -2.237416916822315, -0.9910302842862897 -2.299738906453198, -0.8550503583141776 -2.3492315519647686 C-0.7190704323420656 -2.3987241974763394, -0.5766288372196942 -2.4368913078579806, -0.43412044416733236 -2.462019382530519 C-0.29161205111497057 -2.4871474572030574, -0.1447068147224489 -2.4999999999999996, -7.120580697431198e-15 -2.5 C0.14470681472243463 -2.5000000000000004, 0.29161205111495647 -2.487147457203059, 0.4341204441673183 -2.4620193825305217 C0.5766288372196802 -2.436891307857984, 0.7190704323420518 -2.3987241974763442, 0.8550503583141642 -2.349231551964774 C0.9910302842862766 -2.2997389064532037, 1.1246802223496295 -2.2374169168223212, 1.2499999999999925 -2.165063509461101 C1.3753197776503554 -2.0927101020998804, 1.4961171729167668 -2.008126855338242, 1.6069690242163412 -1.915111107797451 C1.7178208755159157 -1.82209536025666, 1.8220953602566472 -1.7178208755159294, 1.915111107797439 -1.6069690242163557 C2.0081268553382308 -1.496117172916782, 2.09271010209987 -1.3753197776503712, 2.1650635094610915 -1.2500000000000089 C2.237416916822313 -1.1246802223496466, 2.299738906453196 -0.9910302842862939, 2.3492315519647673 -0.855050358314182 C2.3987241974763385 -0.71907043234207, 2.4368913078579792 -0.5766288372196986, 2.462019382530518 -0.4341204441673369 C2.487147457203057 -0.29161205111497523, 2.4936698970884197 -0.07235340736123454, 2.5 -1.1714553645825241e-14 C2.5063301029115803 0.07235340736121111, 2.50633010291158 -0.07235340736122292, 2.5 0" stroke="#9370DB" stroke-width="2" fill="none" stroke-dasharray="0 0" style=""/></g></g></g><g class="node statediagram-note" id="my-svg-state-on_inspect----note-11" data-look="classic" transform="translate(676.57421875, 334)"><g class="basic label-container outer-path"><path d="M-115 -75 L115 -75 L115 75 L-115 75" stroke="none" stroke-width="0" fill="#fff5ad" style=""/><path d="M-115 -75 C-29.137569513096878 -75, 56.724860973806244 -75, 115 -75 M-115 -75 C-60.772727884774824 -75, -6.545455769549648 -75, 115 -75 M115 -75 C115 -32.412974091765825, 115 10.17405181646835, 115 75 M115 -75 C115 -44.63604864478694, 115 -14.272097289573871, 115 75 M115 75 C30.492713131758762 75, -54.014573736482475 75, -115 75 M115 75 C29.376403334906513 75, -56.247193330186974 75, -115 75 M-115 75 C-115 31.561935291489576, -115 -11.876129417020849, -115 -75 M-115 75 C-115 19.88870355582457, -115 -35.22259288835086, -115 -75" stroke="#aaaa33" stroke-width="1.3" fill="none" stroke-dasharray="0 0" style=""/></g><g class="label noteLabel" style="" transform="translate(-100, -60)"><rect/><foreignObject width="200" height="120"><div xmlns="http://www.w3.org/1999/xhtml" style="display: table; white-space: break-spaces; line-height: 1.5; max-width: 200px; text-align: center; width: 200px;"><span class="nodeLabel markdown-node-label"><p>Партнёр отслеживает статус через polling<br />(GET /applications/{id}).<br />Изменять и отменять заявку партнёр не может.</p></span></div></foreignObject></g></g></g></g></g><defs><filter id="my-svg-drop-shadow" height="130%" width="130%"><feDropShadow dx="4" dy="4" stdDeviation="0" flood-opacity="0.06" flood-color="#000000"/></filter></defs><defs><filter id="my-svg-drop-shadow-small" height="150%" width="150%"><feDropShadow dx="2" dy="2" stdDeviation="0" flood-opacity="0.06" flood-color="#000000"/></filter></defs></svg>